<?xml version="1.0" encoding="UTF-8"?>
<svg version="1.1" xmlns="http://www.w3.org/2000/svg" width="300" height="300">
<path d="M0 0 C3.50289527 1.4656747 5.90151288 3.96124904 8.53212929 6.61575985 C9.39072044 7.46505314 9.39072044 7.46505314 10.26665688 8.33150387 C11.47001268 9.52777215 12.66827707 10.72918113 13.86171913 11.93533993 C15.6952674 13.7827972 17.55160273 15.60494684 19.41103554 17.42630672 C20.57785239 18.59217279 21.74326735 19.75944394 22.90712929 20.92825985 C23.46532356 21.47319592 24.02351784 22.01813198 24.59862709 22.57958126 C28.27245444 26.34468041 28.27245444 26.34468041 28.48012733 29.01444149 C26.7907572 31.86683281 24.56881961 34.05010287 22.19228554 36.3227911 C21.42864441 37.07294994 21.42864441 37.07294994 20.64957619 37.83826351 C19.02626782 39.431591 17.39341765 41.01462352 15.75869179 42.5962286 C14.12131985 44.18584485 12.48626189 45.77759018 10.85709572 47.37561703 C9.84382643 48.3690553 8.82565217 49.35751938 7.80225563 50.34052181 C6.60388139 51.51312243 5.45711417 52.73803219 4.32119179 53.9712286 C4.32119179 54.6312286 4.32119179 55.2912286 4.32119179 55.9712286 C5.77323028 57.24812132 5.77323028 57.24812132 7.69619179 58.5337286 C12.9106681 62.32774124 17.61690746 66.56706924 22.32119179 70.9712286 C23.21064491 71.79493954 24.10009804 72.61865047 25.01650429 73.46732235 C35.12905932 83.16212226 46.00823249 95.84742616 51.32119179 108.9712286 C51.33875927 114.15363673 47.75526707 118.3448837 44.94619179 122.4712286 C44.40816933 123.26786922 43.87014687 124.06450985 43.31582069 124.8852911 C20.37735952 158.32853248 -13.30611953 181.29284307 -53.30380821 188.7837286 C-64.22213313 190.70432946 -74.87919954 191.20554748 -85.92880821 191.2212286 C-86.67915337 191.22356503 -87.42949852 191.22590145 -88.20258141 191.22830868 C-99.24578301 191.24126241 -109.89880842 190.5798291 -120.79208946 188.6274786 C-126.40451623 187.4304823 -126.40451623 187.4304823 -131.53288841 189.22403622 C-132.39559601 190.1033984 -132.39559601 190.1033984 -133.27573204 191.00052547 C-133.9360392 191.66121029 -134.59634636 192.3218951 -135.27666283 193.00260067 C-135.97269112 193.72443539 -136.66871941 194.4462701 -137.38583946 195.1899786 C-138.11123421 195.92244808 -138.83662895 196.65491756 -139.58400536 197.40958309 C-141.89842895 199.75199727 -144.19486929 202.11119304 -146.49130821 204.4712286 C-148.05721182 206.06220867 -149.62425594 207.65206708 -151.19248009 209.24075985 C-155.03458554 213.13799676 -158.86206761 217.0491561 -162.67880821 220.9712286 C-168.57788192 215.99504669 -174.17186896 210.76206396 -179.66123009 205.33890438 C-180.68203286 204.33485223 -181.70819443 203.33622229 -182.73935509 202.34281063 C-184.24175834 200.8948766 -185.72730345 199.43143169 -187.21005821 197.9634161 C-188.09242149 197.10087215 -188.97478477 196.23832821 -189.88388634 195.34964657 C-191.67880821 192.9712286 -191.67880821 192.9712286 -191.53211021 191.08399105 C-190.42815411 188.35061295 -188.91974424 186.85935445 -186.82089806 184.78861141 C-186.00269585 183.97386349 -185.18449364 183.15911556 -184.34149742 182.31967831 C-183.44991936 181.44672115 -182.55834129 180.573764 -181.63974571 179.6743536 C-180.24245825 178.2871788 -178.84517325 176.90000151 -177.44802856 175.51268291 C-175.48606906 173.56826872 -173.51729465 171.63082398 -171.54855919 169.6932745 C-168.12625929 166.3229589 -164.71339301 162.94310586 -161.30249596 159.56125546 C-159.48816848 157.76375066 -157.67075781 155.96935082 -155.8497982 154.17856503 C-155.01268303 153.35120846 -154.17556786 152.52385189 -153.31308556 151.67142391 C-152.22173805 150.59698025 -152.22173805 150.59698025 -151.10834312 149.50083065 C-149.23564101 147.5509961 -147.48331188 145.5861752 -145.73135948 143.53270626 C-140.19382684 137.16275787 -134.15557647 131.26603329 -128.20371056 125.28739071 C-126.84118458 123.91531163 -125.47882852 122.54306381 -124.11662865 121.17066097 C-119.66989323 116.69275345 -115.21778408 112.22021085 -110.76474571 107.74857235 C-110.00617035 106.98669967 -109.247595 106.22482699 -108.46603251 105.43986726 C-101.31129009 98.25439083 -94.15452694 91.07093288 -86.99290085 83.89231682 C-77.84152543 74.71896965 -68.70039314 65.53566973 -59.57273901 56.3387174 C-53.14564829 49.86448997 -46.70720063 43.40169825 -40.26013911 36.94735819 C-36.41112574 33.09337983 -32.56737777 29.23446494 -28.73573494 25.36320972 C-25.13880033 21.729571 -21.52808571 18.11023136 -17.9060936 14.50157452 C-16.57739038 13.17281711 -15.25384555 11.83887914 -13.93581009 10.49953938 C-12.14067719 8.67694308 -10.32817694 6.87363727 -8.50995445 5.07411861 C-7.98845168 4.53582092 -7.46694892 3.99752322 -6.92964303 3.44291347 C-3.35907522 -0.03607772 -3.35907522 -0.03607772 0 0 Z M-42.68662071 101.42825985 C-43.6656385 102.34451893 -43.6656385 102.34451893 -44.66443443 103.27928829 C-54.38531904 112.44922933 -63.81558755 121.92085955 -73.26328087 131.37039852 C-76.03656262 134.1437836 -78.81676933 136.91012055 -81.59859085 139.67493629 C-83.75692544 141.82218942 -85.91073744 143.97393437 -88.06327248 146.12699986 C-89.08793485 147.15048471 -90.11421339 148.17235427 -91.14215279 149.1925478 C-92.56518104 150.60581601 -93.98130203 152.02602905 -95.39706993 153.4465704 C-96.20232109 154.25039654 -97.00757225 155.05422268 -97.83722496 155.88240719 C-99.88058732 157.926267 -99.88058732 157.926267 -100.67880821 160.9712286 C-89.9303914 165.02602057 -77.60618397 163.56936363 -67.11630821 159.2212286 C-60.13385421 155.896839 -53.87601002 151.73029006 -48.67880821 145.9712286 C-48.20958946 145.49427547 -47.74037071 145.01732235 -47.25693321 144.5259161 C-38.19010949 134.85152172 -34.2838591 122.80934948 -34.49130821 109.7837286 C-34.49195274 109.00320126 -34.49259727 108.22267391 -34.49326134 107.41849422 C-34.52334671 103.47731098 -34.71521921 99.8178759 -35.67880821 95.9712286 C-38.08575781 95.9712286 -40.93171184 99.78382576 -42.68662071 101.42825985 Z " fill="#000000" transform="translate(237.67880821228027,40.02877140045166)"/>
<path d="M0 0 C2.74411413 0.03170668 5.48765263 0.04104541 8.23193359 0.046875 C9.99886767 0.05602803 11.76579597 0.0663983 13.53271484 0.078125 C14.3421051 0.08237488 15.15149536 0.08662476 15.9854126 0.09100342 C20.24480168 0.1446861 24.25947312 0.44423951 28.45458984 1.28125 C26.07738628 6.88694746 21.46915294 10.98378653 17.30102539 15.29980469 C16.28762578 16.36110811 15.2878435 17.43560264 14.30297852 18.5234375 C8.67949216 24.72657698 4.17597884 29.02247086 -4.41650391 29.8515625 C-6.2271936 29.93688232 -6.2271936 29.93688232 -8.07446289 30.02392578 C-20.43019867 30.93993799 -31.62746204 39.35632578 -39.46728516 48.4296875 C-44.5616598 55.4200888 -49.33997926 65.00798777 -49.62768555 73.79370117 C-50.35505908 84.2106355 -56.5123079 89.37901562 -63.73291016 96.03125 C-65.43142401 97.64189716 -67.1227937 99.25981763 -68.81417847 100.87794495 C-69.90666663 101.92139941 -71.00211673 102.96176223 -72.10061646 103.99888611 C-75.63379915 107.34628242 -78.90531384 110.81014114 -82.04467773 114.52490234 C-84.49277514 117.38997681 -87.13363398 120.0535437 -89.79541016 122.71875 C-90.31103516 123.24662109 -90.82666016 123.77449219 -91.35791016 124.31835938 C-93.73538116 126.70502163 -95.30391615 128.200752 -98.54541016 129.28125 C-101.9154738 126.32056502 -105.23883298 123.31264894 -108.54541016 120.28125 C-109.43357422 119.47300781 -110.32173828 118.66476563 -111.23681641 117.83203125 C-119.29353826 110.1740409 -125.43026126 101.51883098 -131.54541016 92.28125 C-132.24666016 91.23453125 -132.94791016 90.1878125 -133.67041016 89.109375 C-137.64609298 82.88816762 -137.64609298 82.88816762 -137.23168945 80.39013672 C-136.51314273 78.18209452 -135.60961373 76.51083611 -134.35791016 74.55859375 C-133.91108887 73.86064697 -133.46426758 73.1627002 -133.00390625 72.44360352 C-132.52260254 71.70940186 -132.04129883 70.9752002 -131.54541016 70.21875 C-131.04992676 69.45941162 -130.55444336 68.70007324 -130.04394531 67.91772461 C-125.91589659 61.67797436 -121.47760477 55.91424205 -116.54541016 50.28125 C-115.82869141 49.43175781 -115.11197266 48.58226562 -114.37353516 47.70703125 C-108.98068319 41.4631796 -103.08361956 36.29661286 -96.54541016 31.28125 C-95.69333984 30.61351563 -94.84126953 29.94578125 -93.96337891 29.2578125 C-79.39876597 18.20879579 -63.25494233 10.64162725 -45.73291016 5.59375 C-45.08338379 5.40329102 -44.43385742 5.21283203 -43.76464844 5.01660156 C-29.25544371 1.0586038 -14.97824138 -0.17451437 0 0 Z " fill="#000000" transform="translate(148.54541015625,69.71875)"/>
</svg>
