<?xml version="1.0" encoding="UTF-8"?>
<svg version="1.1" xmlns="http://www.w3.org/2000/svg" width="48" height="48">
<path d="M0 0 C0.99 -0.66 1.98 -1.32 3 -2 C8.01056411 -2.74725838 13.32093257 -3.11818199 17.5625 0 C20.52154441 3.64190081 21.84767327 6.30325919 22 11 C21.00822167 20.00598707 14.57074962 25.31309699 7.87890625 30.7109375 C4.71066339 32.94661765 2.58402747 33.94490307 -1.3125 34.3125 C-10.01720525 31.21421508 -17.35751865 24.9914469 -22 17 C-23.49142111 12.52573668 -23.74270548 8.68085977 -21.8125 4.3125 C-19.35482923 1.17685109 -16.81183695 -1.21487065 -13.125 -2.8125 C-8.42323291 -3.2273618 -4.05189751 -2.43113851 0 0 Z " fill="#F44437" transform="translate(25,8)"/>
</svg>
